<?xml version="1.0" encoding="UTF-8" standalone="no"?>
<svg
   version="1.1"
   x="0px"
   y="0px"
   viewBox="0 0 1706.6678 1706.6678"
   enable-background="new 0 0 1842.5 1842.5"
   xml:space="preserve"
   id="svg7336"
   sodipodi:docname="sheikah-logo-iks.svg"
   width="1706.6678"
   height="1706.6678"
   inkscape:version="1.1.1 (3bf5ae0, 2021-09-20)"
   xmlns:inkscape="http://www.inkscape.org/namespaces/inkscape"
   xmlns:sodipodi="http://sodipodi.sourceforge.net/DTD/sodipodi-0.dtd"
   xmlns="http://www.w3.org/2000/svg"
   xmlns:svg="http://www.w3.org/2000/svg"><defs
   id="defs7340" /><sodipodi:namedview
   id="namedview7338"
   pagecolor="#505050"
   bordercolor="#eeeeee"
   borderopacity="1"
   inkscape:pageshadow="0"
   inkscape:pageopacity="0"
   inkscape:pagecheckerboard="0"
   showgrid="false"
   inkscape:zoom="0.27593475"
   inkscape:cx="268.17934"
   inkscape:cy="1092.6496"
   inkscape:window-width="1920"
   inkscape:window-height="1016"
   inkscape:window-x="0"
   inkscape:window-y="27"
   inkscape:window-maximized="1"
   inkscape:current-layer="g7334" />
<g
   id="g7334"
   transform="translate(-89.327934,-54.679192)">
	
	<path
   fill="#ffffff"
   d="m 993.49141,675.19733 c -2.22798,-0.27005 -4.72598,-0.54011 -7.15647,-0.94519 -9.24935,-1.55281 -18.56622,-2.56551 -27.9506,-3.17313 -10.66714,-0.67514 -21.33428,-0.54011 -32.00142,0.27005 -7.56152,0.54011 -15.05552,1.55281 -22.48201,2.83557 -2.43049,0.40508 -4.86097,0.87768 -7.35897,0.87768 -4.72595,0 -6.21125,-1.62033 -5.80617,-6.34628 0.20254,-2.498 0.94519,-4.86097 1.62033,-7.22395 3.91578,-13.36768 8.43919,-26.4653 14.44789,-39.09034 2.90309,-6.14373 5.4686,-12.42249 8.23666,-18.63373 4.38838,-9.99201 9.45189,-19.64644 14.51541,-29.23337 2.97059,-5.60362 5.94119,-11.27476 9.31687,-16.60833 0.87767,-1.35027 1.75535,-2.70054 2.97059,-3.78075 2.29546,-2.02541 4.59092,-2.09292 6.9539,-0.13503 0.81016,0.67513 1.55281,1.4853 2.22794,2.29546 4.65844,5.80616 8.57422,12.21995 11.61233,18.9713 4.65844,10.32957 8.70925,20.9292 12.49001,31.52883 6.68384,18.70125 14.38038,36.99742 22.27949,55.15856 1.08022,2.498 1.95789,4.996 2.63301,7.62903 0.2026,0.74265 0.2701,1.4853 0.3376,2.22795 0.067,1.35027 -0.60763,2.22794 -1.89039,2.70054 -0.40508,0.13502 -0.81016,0.33756 -1.21525,0.40508 -1.14773,0.13503 -2.29546,0.13503 -3.78075,0.27005 z m 170.94429,-49.28488 c -0.2026,-3.71325 -1.8904,-4.92849 -5.5361,-4.32087 -1.1478,0.20254 -2.2955,0.54011 -3.4432,0.87768 -10.0595,2.83557 -19.4439,7.15643 -28.2207,12.69254 -12.1524,7.62903 -24.1698,15.4606 -36.1872,23.29217 -8.3042,5.40109 -16.5408,10.9372 -24.845,16.40579 -2.633,1.75536 -4.996,3.78076 -6.7514,6.41379 -1.8903,2.83557 -1.8903,4.65844 0.3376,7.29146 2.0929,2.56552 4.7935,4.25336 7.8991,5.40109 3.8483,1.35027 7.6965,2.76805 11.4773,4.32086 15.8657,6.54882 30.3136,15.52812 43.6137,26.33028 4.0509,3.24065 7.8991,6.75136 11.8149,10.12703 1.7554,1.4853 3.4432,2.90309 5.5361,3.91579 3.7808,1.89038 6.3463,1.0127 8.2367,-2.76805 0.9452,-1.89038 1.4853,-3.84828 1.7553,-5.87368 1.1478,-7.15644 2.228,-14.31287 3.2407,-21.46931 1.2152,-8.57422 2.498,-17.08092 4.2533,-25.52012 1.8229,-8.64173 3.3082,-17.35098 4.3209,-26.19525 0.6076,-5.26606 1.1477,-10.53211 1.6203,-15.79817 0.4051,-4.05081 0.6076,-8.16914 0.8777,-12.01741 0,-1.21524 0.067,-2.16043 0,-3.10562 z m -431.07399,66.77089 v 14.58292 c -0.0675,13.84028 -0.13503,27.61304 -0.20254,41.45332 0,1.41778 0.0675,2.83557 0.13503,4.18584 0.0675,0.74265 0.20254,1.4853 0.47259,2.22794 0.54011,1.4853 1.4853,2.09292 3.03811,1.82287 0.81016,-0.13503 1.68784,-0.40508 2.43049,-0.74265 1.89038,-0.87768 3.5107,-2.09292 4.996,-3.5107 7.08892,-6.4813 14.31287,-12.82758 21.73936,-18.97131 12.9626,-10.73465 27.00541,-19.64644 42.46602,-26.33028 3.44319,-1.4853 6.88638,-3.03811 10.39708,-4.52341 3.57822,-1.55281 7.02141,-3.30816 10.39709,-5.19854 0.5401,-0.33757 1.14773,-0.67513 1.62032,-1.08022 1.21524,-1.0127 1.35027,-2.09292 0.60762,-3.44319 -0.74265,-1.21524 -1.82286,-2.09292 -2.97059,-2.90308 -8.64174,-6.41378 -17.35098,-12.82757 -25.99272,-19.24136 -3.84827,-2.83557 -7.76405,-5.46859 -11.40978,-8.5067 -14.51542,-12.21995 -30.3811,-22.34698 -46.98943,-31.46131 -1.89038,-1.01271 -3.84827,-1.9579 -5.87368,-2.70054 -2.29546,-0.87768 -4.05081,0.13502 -4.65843,2.498 -0.20254,0.81016 -0.27005,1.68784 -0.27005,2.56551 -0.81017,15.73066 -0.67514,31.52882 -0.13503,47.25948 l 0.40508,11.9499 c -0.13503,0.0675 -0.13503,0.0675 -0.20254,0.0675 z m 164.86806,521.47456 c 0.40509,5.4011 0.94519,10.7347 2.36298,16.0007 3.5107,12.5576 9.78946,23.4272 19.64644,32.1365 4.32086,3.7807 9.18184,6.8189 14.65044,8.7768 4.38838,1.5528 8.9793,2.4304 13.63773,2.0929 6.4813,-0.4726 12.42249,-2.6331 17.82358,-6.1438 5.06351,-3.2406 9.31686,-7.3589 12.9626,-12.0849 5.46859,-7.0889 9.31686,-14.988 11.94989,-23.4947 1.95792,-6.2788 2.97062,-12.8276 4.05084,-19.3089 2.02541,-12.1524 2.22795,-24.3048 0.94519,-36.4573 -1.08022,-10.127 -2.97059,-20.0515 -5.26608,-29.976 -4.86098,-20.6591 -9.92449,-41.3183 -14.31287,-62.1124 -1.41779,-6.6839 -2.90308,-13.3002 -4.05081,-19.9841 -1.35028,-7.9666 -2.36298,-16.0007 -3.37568,-24.0348 -1.08022,-8.6417 -2.09292,-17.351 -3.03811,-26.0602 -0.40508,-3.9833 -0.60762,-7.9666 -0.87768,-11.9499 -0.13502,-1.62032 0.0675,-3.24072 0.54011,-4.79352 0.4726,-1.5528 1.35027,-2.7005 2.90308,-3.3081 1.28276,-0.4726 2.63303,-0.8777 4.05082,-1.2153 l 27.54556,-5.8736 c 19.9165,-4.3884 39.0228,-10.8697 57.319,-19.849 30.8537,-15.0555 57.0489,-35.9848 79.3959,-61.8424 11.3423,-13.0977 21.3343,-27.1405 30.3811,-41.9259 0.8777,-1.3503 1.6203,-2.7681 2.8356,-3.9158 2.7005,-2.5655 5.8061,-3.5107 9.5194,-2.2955 6.2112,2.0254 12.49,2.1605 18.9038,0.9452 17.756,-3.3082 32.1364,-16.4733 36.9299,-33.8243 2.498,-8.9118 2.3629,-17.8911 0.27,-26.8704 -1.0127,-4.2533 -2.5655,-8.2366 -4.7934,-11.94986 -1.8904,-3.17313 -4.2534,-6.0087 -7.224,-8.23665 -1.8228,-1.35027 -3.8483,-2.43049 -6.0087,-3.10562 -0.8777,-0.27006 -1.4853,0.20254 -1.3503,1.14773 0.1351,1.41778 0.3376,2.76805 0.5402,4.18584 0.8101,5.67113 0.9451,11.40976 0.27,17.14846 -0.4726,3.7807 -1.4178,7.4265 -3.1056,10.8697 -3.3082,6.8188 -8.6418,11.2072 -16.0007,13.0976 -5.3336,1.4178 -10.6672,1.2827 -16.0682,0.27 -7.1565,-1.3502 -13.9078,-3.9157 -20.1866,-7.6965 -5.6711,-3.3757 -10.9372,-7.2915 -16.0682,-11.4098 -6.3463,-5.0635 -12.625,-10.127 -19.1063,-15.05551 -18.0937,-13.90779 -37.1325,-26.3978 -57.5216,-36.65986 -18.4312,-9.24935 -37.2675,-17.55352 -56.9814,-23.83228 -18.16116,-5.73865 -36.72741,-9.51941 -55.83374,-10.53211 -11.88238,-0.67513 -23.76477,-0.20254 -35.57964,1.28276 -11.88238,1.4853 -23.62974,3.91578 -35.17455,7.22395 -46.04424,13.36768 -87.56506,35.10704 -124.22491,66.09575 -8.64174,7.359 -17.75607,14.1103 -27.47802,19.984 -5.26605,3.1731 -10.80216,5.8737 -16.67584,7.8316 -6.81887,2.2954 -13.77276,3.5782 -20.99671,2.363 -9.31687,-1.5529 -15.79817,-6.5489 -19.17385,-15.3931 -1.55281,-3.9833 -2.16043,-8.1017 -2.29546,-12.355 -0.20254,-5.40109 0.54011,-10.80218 1.4853,-16.06823 0.0675,-0.54011 0.20254,-1.08022 0.27006,-1.62033 0.0675,-0.67513 -0.74265,-1.21524 -1.35028,-1.0127 -0.33756,0.13503 -0.60762,0.20254 -0.87767,0.40508 -11.27476,6.00871 -17.9586,15.25808 -19.64644,27.95058 -0.94519,6.8189 -0.27006,13.5702 1.08021,20.2541 0.67514,3.5107 1.4853,6.9539 3.17314,10.1945 2.36298,4.591 5.33357,8.6418 9.18184,12.0174 8.70925,7.7641 18.97131,11.7474 30.58364,12.5576 5.53611,0.405 11.0047,0.068 16.33827,-1.5528 2.43049,-0.7427 4.18584,0 5.73865,1.6878 0.74265,0.8102 1.41779,1.6878 1.9579,2.5655 1.08021,1.6203 2.09292,3.2407 3.10562,4.9285 3.9833,6.8189 8.03411,13.5702 12.35498,20.119 11.67984,17.6886 25.4526,33.5543 41.3858,47.462 8.84427,7.7641 18.49871,14.5155 28.22066,21.1993 7.08892,4.9285 14.58292,9.2493 22.34698,13.0301 15.32557,7.494 31.32628,13.3002 47.73207,18.1611 12.76006,3.7133 25.58763,7.0215 38.75277,8.7768 1.89038,0.2701 3.84828,0.4726 5.73865,0.8102 4.11833,0.6751 5.9412,2.1604 5.40109,7.35892 -1.14773,10.5997 -1.95789,21.2668 -2.90308,31.9339 -0.40509,4.726 -0.81017,9.4519 -1.41779,14.1779 -1.14773,9.3169 -2.498,18.6337 -4.32087,27.8156 -1.75535,9.1143 -3.44319,18.2286 -5.60362,27.2754 -4.05081,17.081 -8.16914,34.1619 -12.35498,51.2428 -3.03811,12.4225 -4.65843,25.0475 -4.59092,37.335 0.4726,8.0341 0.94519,15.5281 1.55281,23.0896 z M 1052.2282,829.80338 c -0.068,-3.3082 -0.6751,-6.1438 -1.4853,-8.9793 -1.2828,-4.3884 -2.9031,-8.5743 -5.0635,-12.6251 -3.9158,-7.3589 -8.3042,-14.3804 -13.4352,-20.92917 -8.2367,-10.53211 -18.1612,-19.03882 -30.0435,-25.18255 -4.86102,-2.498 -9.92456,-4.79346 -14.85305,-7.15644 -0.67514,-0.33756 -1.35027,-0.60762 -2.02541,-1.0127 -0.20254,-0.13503 -0.33757,-0.60762 -0.27005,-0.81016 0.0675,-0.27006 0.40508,-0.54011 0.67513,-0.60762 0.60762,-0.27006 1.28276,0 1.89038,0.13502 13.7728,2.56552 26.8704,7.08892 39.563,13.03012 12.5575,5.87367 24.3724,12.9626 35.7821,20.79417 12.22,8.37163 24.0349,17.28343 35.9848,25.92523 6.5488,4.7259 13.1651,9.3843 19.8489,13.9753 8.3042,5.6711 16.8109,10.9372 25.7902,15.5281 2.633,1.3503 2.7681,1.8904 1.6879,4.5909 -0.3376,0.8102 -0.6752,1.5528 -1.1478,2.363 -6.4138,11.6798 -13.2326,23.0221 -21.1317,33.6892 -8.9118,12.085 -19.2414,22.7521 -31.0562,32.0015 -5.8737,4.5909 -11.7474,9.1818 -17.7561,13.5026 -6.3463,4.5234 -13.0976,8.3042 -19.9165,12.1525 -19.4439,10.8697 -40.103,18.4312 -61.90992,23.0896 -0.40508,0.067 -0.8777,0.135 -1.28279,0.135 -0.13502,0 -0.33756,-0.27 -0.40508,-0.405 -0.0675,-0.1351 0,-0.4726 0.13503,-0.5401 0.40508,-0.3376 0.8777,-0.6077 1.3503,-0.8777 1.75535,-0.8777 3.5107,-1.6879 5.19854,-2.5655 6.07622,-3.1057 11.94992,-6.4138 17.62102,-10.2621 7.7641,-5.2661 14.4479,-11.6798 19.849,-19.3089 1.8904,-2.633 3.7132,-5.3335 5.4686,-8.0341 4.5234,-6.9539 7.2915,-14.6504 8.9118,-22.752 0.4051,-2.0929 0.8101,-4.2534 1.1477,-6.3463 0.135,-0.7427 0.2026,-1.4853 0.2026,-2.2279 0,-2.228 -1.0127,-3.6458 -2.9706,-4.0509 -2.228,-0.4726 -4.2534,0.4051 -5.1311,2.363 -0.4051,0.8777 -0.6076,1.8229 -0.8101,2.7681 -1.3503,6.9539 -4.1184,13.3676 -7.8316,19.3764 -3.3082,5.4686 -7.2915,10.4646 -11.7474,15.0555 -11.1397,11.5448 -23.83224,20.9292 -38.41519,27.6805 -5.67114,2.633 -11.40979,5.131 -17.55353,6.4813 -7.83157,1.7554 -15.79816,2.2955 -23.83227,1.7554 -6.88639,-0.4726 -13.77277,-1.2828 -20.45661,-3.0381 -23.49471,-6.0763 -43.34369,-17.8911 -58.53424,-37.065 -5.73865,-7.2239 -10.12703,-15.258 -13.23265,-23.9673 -1.0127,-2.8355 -2.09292,-5.6711 -3.5107,-8.3717 -0.60763,-1.0802 -1.35028,-1.9578 -2.63303,-2.0929 -1.75535,-0.2025 -3.17314,0.6076 -3.91579,2.228 -0.60762,1.2827 -0.74265,2.7005 -0.54011,4.1183 1.01271,7.5615 2.90309,14.853 6.41379,21.6043 4.79346,9.2494 11.00471,17.5535 17.9586,25.2501 3.51071,3.8482 7.62903,7.0214 11.88238,9.9245 5.9412,3.9833 12.21996,7.359 18.4312,10.7346 1.14773,0.6077 2.76806,0.6752 3.03811,2.4305 -1.28276,0.6752 -2.498,0.067 -3.71324,-0.135 -12.15244,-2.1604 -24.03482,-5.2661 -35.51213,-9.7895 -7.42649,-2.9031 -14.58292,-6.4813 -21.26676,-10.8697 -6.88638,-4.4559 -13.84028,-8.8442 -20.65914,-13.3676 -3.57822,-2.363 -7.08893,-4.861 -10.59963,-7.4265 -10.59963,-7.629 -19.9165,-16.6083 -27.81558,-26.9379 -6.81887,-8.9118 -13.50271,-17.9586 -20.11903,-27.0054 -2.83557,-3.8483 -5.19855,-7.8991 -7.35898,-12.1525 -0.87768,-1.7553 -1.41778,-3.5782 -1.89038,-5.4686 -0.47259,-1.8903 -0.0675,-3.6457 1.08022,-5.1985 0.87767,-1.0802 1.82286,-2.1604 2.83557,-3.1056 31.86639,-29.706 66.63586,-55.15859 106.40134,-73.52228 11.20724,-5.13102 22.61703,-9.65443 34.49941,-12.89508 2.16044,-0.60762 4.38838,-1.08022 6.61633,-1.4853 0.81016,-0.20254 1.68784,-0.20254 2.56552,-0.20254 0.40508,0 0.87767,0.0675 1.0127,0.54011 0.20254,0.60762 -0.13503,1.0127 -0.60762,1.35027 -1.35027,0.94519 -2.83557,1.55281 -4.32087,2.22795 -17.14844,7.0214 -31.32628,18.16114 -43.00612,32.40647 -9.31687,11.2748 -15.25806,24.2374 -18.36369,38.4827 -0.60762,2.8356 -1.0127,5.7387 -0.87767,8.7093 0.13502,1.9579 0.87767,3.4432 2.70054,4.4559 1.75535,0.8777 3.24065,0.27 4.05081,-1.3503 0.40508,-0.8777 0.67514,-1.8229 0.94519,-2.768 1.82287,-6.1438 3.9833,-12.085 6.61633,-17.8911 5.40108,-12.0174 12.42249,-22.9546 21.53682,-32.47404 8.57422,-8.9793 18.49871,-16.20325 29.84098,-21.4018 4.59092,-2.16043 9.18184,-4.32086 13.9753,-5.87367 5.33357,-1.75536 10.86968,-2.76806 16.47331,-3.10563 4.92849,-0.27005 9.92449,-0.40508 14.92049,-0.13502 19.03882,0.87767 36.3898,6.61632 52.18802,17.28346 13.9078,9.38438 24.98,21.5368 33.7567,35.7822 3.9833,6.4138 7.4265,13.1651 10.4646,20.119 0.4051,1.0127 0.8777,1.9579 1.3503,2.9031 0.6076,1.1477 1.4853,1.8229 2.9031,1.6203 1.6878,-0.2025 3.0381,-1.2827 3.3082,-2.7005 0.135,-0.9452 0.135,-1.6879 0.135,-2.0929 z m 4.0508,30.0435 c -0.2701,-3.2407 -2.2955,-6.0087 -5.4011,-6.8864 -2.9031,-0.8102 -5.9412,-0.5401 -7.6965,3.3757 -0.7427,1.5528 -1.0802,3.3081 -1.0802,4.996 0.135,4.4559 3.7132,8.7092 9.7894,7.494 1.6879,-0.3376 2.8356,-1.4178 3.6458,-2.9706 0.6751,-1.4178 0.8101,-2.9031 0.8101,-4.3884 -0.068,-0.5401 -0.068,-1.0802 -0.068,-1.6203 z m -211.92503,10.8022 c 3.30816,-1.2153 5.06351,-5.0636 3.9833,-8.5068 -1.14773,-3.5107 -4.18584,-5.401 -8.03411,-4.9284 -3.64573,0.405 -6.27876,3.2406 -6.41379,6.9539 -0.13503,4.6584 2.02541,7.1564 6.95389,7.2239 1.08022,0.135 2.29547,-0.2701 3.51071,-0.7426 z m 167.70363,-39.4955 c -10.3971,-25.7226 -29.36839,-40.6431 -56.98143,-44.35637 -8.37167,-1.14773 -16.81087,-0.67513 -25.11503,1.14773 -18.02612,3.84824 -32.74407,13.03014 -43.54624,28.08564 -6.81886,9.4519 -10.86968,20.0515 -12.49,31.5963 -1.41778,10.0596 -1.08022,20.0516 1.82287,29.841 5.73865,19.5114 17.75606,34.0944 35.4446,43.8838 15.86569,8.7768 32.94661,11.2072 50.77019,8.0341 13.09762,-2.2954 24.64244,-7.8991 34.2969,-17.0134 14.51544,-13.7727 21.19924,-30.8537 21.19924,-50.7026 0.067,-10.5997 -1.4853,-20.7942 -5.4011,-30.5162 z m -67.37851,52.323 c -3.17314,-0.135 -6.27876,-0.5401 -9.24936,-1.6203 -5.33357,-1.8904 -9.38438,-5.2661 -11.67984,-10.5321 -2.70054,-6.0762 -3.84827,-12.4225 -2.0254,-18.9038 2.83556,-9.992 9.72195,-15.7307 19.78146,-17.8236 3.37568,-0.6751 6.81887,-0.7426 10.32957,-0.135 7.35898,1.2828 12.82758,5.131 15.9332,11.8824 3.71324,7.9666 3.78076,16.2032 -0.33757,24.0348 -4.79346,9.1143 -12.55752,13.3002 -22.75206,13.0976 z"
   id="path7332"
   sodipodi:nodetypes="cccccscccccccccccccccccccccccsccccccscccccccccccscccccccccccccccccccccccccscscccccccscccccccccccccccsccccccccccccccccccccccccccccccccccccccccccccccccccccccccccccccccccccssccccccccsccccccccccccccccccccccccccccscccccsccccccccccccccccccccccccccsccccccccccccccccccccccccccccc"
   style="display:inline;stroke-width:0.675135;fill:#000000" />
</g>
</svg>
