<svg version="1.2" baseProfile="tiny-ps" xmlns="http://www.w3.org/2000/svg" viewBox="0 0 795 795" width="256" height="256"><title>sheikah-logo-iks-svg</title><style>tspan { white-space:pre }.shp0 { fill: #ffffff } </style><g ><path fill-rule="evenodd" class="shp0" d="M437.01 174.57C427.76 173.02 418.44 172.01 409.06 171.4C398.39 170.72 387.72 170.86 377.05 171.67C369.49 172.21 362 173.22 354.57 174.51C352.14 174.91 349.71 175.38 347.21 175.38C342.49 175.38 341 173.76 341.41 169.04C341.61 166.54 342.35 164.18 343.03 161.81C346.94 148.45 351.47 135.35 357.48 122.72C360.38 116.58 362.94 110.3 365.71 104.09C370.1 94.1 375.16 84.44 380.23 74.86C383.2 69.25 386.17 63.58 389.54 58.25C390.42 56.9 391.3 55.55 392.52 54.47C394.81 52.44 397.11 52.37 399.47 54.33C400.28 55.01 401.02 55.82 401.7 56.63C406.36 62.43 410.27 68.85 413.31 75.6C417.97 85.93 422.02 96.53 425.8 107.13C432.48 125.83 440.18 144.12 448.08 162.29C449.16 164.78 450.04 167.28 450.71 169.91C450.91 170.66 450.98 171.4 451.05 172.14C451.12 173.49 450.44 174.37 449.16 174.84C448.75 174.98 448.35 175.18 447.94 175.25C446.8 175.38 445.65 175.38 444.16 175.52C441.94 175.25 439.44 174.98 437.01 174.57ZM615.11 126.23C615.17 127.18 615.11 128.12 615.11 129.34C614.84 133.19 614.64 137.31 614.23 141.36C613.76 146.62 613.22 151.89 612.61 157.15C611.6 166 610.11 174.71 608.29 183.35C606.53 191.79 605.25 200.3 604.04 208.87C603.02 216.03 601.94 223.18 600.79 230.34C600.52 232.36 599.98 234.32 599.04 236.21C597.15 239.99 594.58 240.87 590.8 238.98C588.71 237.97 587.02 236.55 585.27 235.07C581.35 231.69 577.5 228.18 573.45 224.94C560.15 214.14 545.7 205.16 529.84 198.61C526.06 197.05 522.21 195.64 518.36 194.29C515.26 193.14 512.55 191.45 510.46 188.89C508.23 186.25 508.23 184.43 510.12 181.59C511.88 178.96 514.24 176.94 516.88 175.18C525.18 169.71 533.42 164.18 541.72 158.77C553.74 150.94 565.76 143.11 577.91 135.48C586.68 129.95 596.07 125.63 606.13 122.79C607.28 122.45 608.42 122.11 609.57 121.91C613.22 121.3 614.91 122.52 615.11 126.23ZM184.03 193C184.1 193 184.1 193 184.24 192.94L183.83 180.99C183.29 165.26 183.16 149.46 183.97 133.73C183.97 132.85 184.03 131.97 184.24 131.16C184.84 128.8 186.6 127.79 188.89 128.66C190.92 129.41 192.88 130.35 194.77 131.36C211.38 140.48 227.24 150.61 241.76 162.83C245.4 165.86 249.32 168.5 253.17 171.33C261.81 177.75 270.52 184.16 279.16 190.57C280.31 191.38 281.39 192.26 282.13 193.48C282.87 194.83 282.74 195.91 281.52 196.92C281.05 197.33 280.44 197.66 279.9 198C276.53 199.89 273.08 201.65 269.51 203.2C266 204.68 262.55 206.24 259.11 207.72C243.65 214.41 229.61 223.32 216.64 234.05C209.22 240.2 201.99 246.54 194.9 253.02C193.42 254.44 191.8 255.66 189.91 256.53C189.16 256.87 188.29 257.14 187.48 257.28C185.92 257.55 184.98 256.94 184.44 255.45C184.17 254.71 184.03 253.97 183.97 253.23C183.9 251.88 183.83 250.46 183.83 249.04C183.9 235.2 183.97 221.43 184.03 207.59L184.03 193ZM348.9 714.48C348.29 706.92 347.82 699.42 347.35 691.39C347.28 679.1 348.9 666.48 351.94 654.05C356.13 636.97 360.24 619.89 364.29 602.81C366.46 593.76 368.14 584.65 369.9 575.54C371.72 566.35 373.07 557.04 374.22 547.72C374.83 542.99 375.23 538.27 375.64 533.54C376.58 522.88 377.39 512.21 378.54 501.61C379.08 496.41 377.26 494.92 373.14 494.25C371.25 493.91 369.29 493.71 367.4 493.44C354.24 491.68 341.41 488.38 328.65 484.66C312.24 479.8 296.24 474 280.92 466.5C273.15 462.72 265.66 458.4 258.57 453.47C248.85 446.79 239.19 440.04 230.35 432.27C214.41 418.36 200.64 402.5 188.96 384.81C184.64 378.26 180.59 371.51 176.61 364.69C175.59 363 174.58 361.38 173.5 359.76C172.96 358.88 172.29 358.01 171.54 357.2C169.99 355.51 168.24 354.77 165.81 355.51C160.47 357.13 155 357.47 149.47 357.06C137.85 356.25 127.59 352.27 118.88 344.5C115.03 341.13 112.06 337.08 109.7 332.49C108.01 329.25 107.2 325.8 106.53 322.29C105.18 315.61 104.5 308.86 105.45 302.04C107.14 289.35 113.82 280.1 125.09 274.09C125.36 273.89 125.63 273.82 125.97 273.68C126.58 273.48 127.39 274.02 127.32 274.7C127.25 275.24 127.12 275.78 127.05 276.32C126.11 281.58 125.36 286.98 125.57 292.38C125.7 296.64 126.31 300.76 127.86 304.74C131.24 313.58 137.72 318.58 147.04 320.13C154.26 321.35 161.21 320.06 168.03 317.77C173.91 315.81 179.44 313.11 184.71 309.94C194.43 304.06 203.55 297.31 212.19 289.95C248.85 258.96 290.37 237.23 336.41 223.86C347.96 220.55 359.7 218.12 371.59 216.63C383.4 215.15 395.28 214.68 407.17 215.35C426.27 216.36 444.84 220.14 463 225.88C482.71 232.16 501.55 240.47 519.98 249.72C540.37 259.98 559.41 272.47 577.5 286.38C583.98 291.3 590.26 296.37 596.61 301.43C601.74 305.55 607.01 309.46 612.68 312.84C618.96 316.62 625.71 319.19 632.86 320.54C638.26 321.55 643.6 321.68 648.93 320.27C656.29 318.38 661.62 313.99 664.93 307.17C666.62 303.73 667.57 300.08 668.04 296.3C668.71 290.56 668.58 284.82 667.77 279.15C667.57 277.73 667.36 276.38 667.23 274.97C667.09 274.02 667.7 273.55 668.58 273.82C670.74 274.49 672.76 275.57 674.59 276.92C677.56 279.15 679.92 281.99 681.81 285.16C684.04 288.87 685.59 292.86 686.6 297.11C688.7 306.09 688.83 315.07 686.33 323.98C681.54 341.33 667.16 354.5 649.4 357.8C642.99 359.02 636.71 358.88 630.5 356.86C626.79 355.64 623.68 356.59 620.98 359.15C619.77 360.3 619.02 361.72 618.15 363.07C609.1 377.86 599.11 391.9 587.76 405C565.42 430.85 539.22 451.78 508.37 466.84C490.07 475.82 470.97 482.3 451.05 486.69L423.5 492.56C422.09 492.9 420.74 493.3 419.45 493.78C417.9 494.38 417.02 495.53 416.55 497.09C416.08 498.64 415.88 500.26 416.01 501.88C416.28 505.86 416.48 509.85 416.89 513.83C417.83 522.54 418.85 531.25 419.93 539.89C420.94 547.92 421.95 555.96 423.3 563.92C424.45 570.61 425.93 577.22 427.35 583.91C431.74 604.7 436.8 625.36 441.67 646.02C443.96 655.94 445.85 665.87 446.93 676C448.21 688.15 448.01 700.3 445.99 712.45C444.91 718.93 443.89 725.48 441.94 731.76C439.3 740.27 435.45 748.17 429.99 755.26C426.34 759.98 422.09 764.1 417.02 767.34C411.62 770.85 405.68 773.01 399.2 773.49C394.54 773.82 389.95 772.95 385.56 771.39C380.09 769.43 375.23 766.4 370.91 762.62C361.05 753.91 354.78 743.04 351.26 730.48C349.85 725.21 349.31 719.88 348.9 714.48ZM502.9 330.12C502.9 330.53 502.9 331.27 502.77 332.22C502.5 333.63 501.14 334.72 499.46 334.92C498.04 335.12 497.16 334.44 496.55 333.3C496.08 332.35 495.61 331.41 495.2 330.39C492.17 323.44 488.72 316.69 484.74 310.28C475.96 296.03 464.89 283.88 450.98 274.49C435.18 263.83 417.83 258.09 398.79 257.21C393.8 256.94 388.8 257.07 383.87 257.34C378.27 257.68 372.73 258.69 367.4 260.45C362.61 262 358.02 264.16 353.43 266.32C342.08 271.52 332.16 278.75 323.58 287.73C314.47 297.25 307.45 308.18 302.05 320.2C299.41 326.01 297.25 331.95 295.43 338.09C295.16 339.04 294.89 339.98 294.49 340.86C293.68 342.48 292.19 343.09 290.44 342.21C288.61 341.2 287.87 339.71 287.73 337.75C287.6 334.78 288 331.88 288.61 329.04C291.72 314.8 297.66 301.84 306.98 290.56C318.66 276.32 332.83 265.18 349.98 258.15C351.47 257.48 352.95 256.87 354.3 255.93C354.78 255.59 355.11 255.18 354.91 254.58C354.78 254.1 354.3 254.04 353.9 254.04C353.02 254.04 352.14 254.04 351.33 254.24C349.1 254.64 346.88 255.12 344.72 255.72C332.83 258.96 321.42 263.49 310.22 268.62C270.45 286.98 235.68 312.44 203.82 342.14C202.8 343.09 201.86 344.17 200.98 345.25C199.83 346.8 199.43 348.56 199.9 350.45C200.37 352.34 200.91 354.16 201.79 355.91C203.95 360.17 206.31 364.22 209.15 368.07C215.77 377.11 222.45 386.16 229.27 395.07C237.17 405.4 246.48 414.38 257.08 422.01C260.59 424.58 264.1 427.07 267.68 429.44C274.5 433.96 281.46 438.35 288.34 442.8C295.03 447.19 302.18 450.77 309.61 453.67C321.09 458.2 332.97 461.3 345.12 463.46C346.34 463.67 347.55 464.27 348.83 463.6C348.56 461.84 346.94 461.78 345.8 461.17C339.58 457.79 333.31 454.42 327.37 450.43C323.11 447.53 318.99 444.36 315.48 440.51C308.53 432.81 302.32 424.51 297.52 415.26C294.01 408.51 292.12 401.22 291.11 393.65C290.91 392.24 291.04 390.82 291.65 389.54C292.39 387.92 293.81 387.11 295.57 387.31C296.85 387.44 297.59 388.32 298.2 389.4C299.62 392.1 300.7 394.94 301.71 397.77C304.82 406.48 309.2 414.52 314.94 421.74C330.13 440.91 349.98 452.73 373.48 458.8C380.16 460.56 387.05 461.37 393.93 461.84C401.97 462.38 409.93 461.84 417.77 460.09C423.91 458.74 429.65 456.24 435.32 453.61C449.9 446.86 462.59 437.47 473.73 425.93C478.19 421.33 482.17 416.34 485.48 410.87C489.19 404.86 491.96 398.45 493.31 391.49C493.52 390.55 493.72 389.6 494.12 388.73C495 386.77 497.03 385.89 499.25 386.36C501.21 386.77 502.23 388.19 502.23 390.41C502.23 391.16 502.16 391.9 502.02 392.64C501.68 394.73 501.28 396.9 500.87 398.99C499.25 407.09 496.49 414.79 491.96 421.74C490.21 424.44 488.38 427.14 486.49 429.77C481.09 437.4 474.41 443.82 466.65 449.08C460.97 452.93 455.1 456.24 449.02 459.35C447.34 460.22 445.58 461.03 443.83 461.91C443.35 462.18 442.88 462.45 442.48 462.79C442.34 462.86 442.27 463.19 442.34 463.33C442.41 463.46 442.61 463.73 442.75 463.73C443.15 463.73 443.62 463.67 444.03 463.6C465.84 458.94 486.49 451.38 505.94 440.51C512.76 436.66 519.51 432.88 525.85 428.36C531.86 424.04 537.74 419.44 543.61 414.85C555.43 405.6 565.76 394.94 574.67 382.85C582.57 372.19 589.39 360.84 595.8 349.16C596.27 348.35 596.61 347.61 596.95 346.8C598.03 344.1 597.89 343.56 595.26 342.21C586.28 337.62 577.77 332.35 569.47 326.68C562.78 322.09 556.17 317.43 549.62 312.71C537.67 304.06 525.85 295.15 513.63 286.78C502.23 278.95 490.41 271.86 477.85 265.99C465.16 260.05 452.06 255.52 438.29 252.96C437.68 252.82 437.01 252.55 436.4 252.82C436.13 252.89 435.79 253.16 435.72 253.43C435.66 253.63 435.79 254.1 435.99 254.24C436.67 254.64 437.34 254.91 438.02 255.25C442.95 257.61 448.01 259.91 452.87 262.41C464.76 268.55 474.68 277.06 482.92 287.59C488.05 294.14 492.44 301.16 496.35 308.52C498.51 312.57 500.13 316.76 501.41 321.14C502.23 323.98 502.83 326.82 502.9 330.12ZM506.95 360.17C506.95 360.71 506.95 361.25 507.02 361.79C507.02 363.27 506.88 364.76 506.21 366.18C505.4 367.73 504.25 368.81 502.56 369.15C496.49 370.36 492.91 366.11 492.77 361.65C492.77 359.97 493.11 358.21 493.85 356.66C495.61 352.74 498.65 352.47 501.55 353.28C504.66 354.16 506.68 356.93 506.95 360.17L506.95 360.17ZM295.03 370.97C293.81 371.44 292.6 371.85 291.52 371.71C286.59 371.64 284.43 369.15 284.56 364.49C284.7 360.78 287.33 357.94 290.98 357.53C294.82 357.06 297.86 358.95 299.01 362.46C300.09 365.91 298.33 369.75 295.03 370.97ZM462.73 331.47C466.65 341.2 468.2 351.39 468.13 361.99C468.13 381.84 461.45 398.92 446.93 412.69C437.28 421.81 425.73 427.41 412.63 429.71C394.81 432.88 377.73 430.45 361.86 421.67C344.18 411.88 332.16 397.3 326.42 377.79C323.52 368 323.18 358.01 324.6 347.95C326.22 336.4 330.27 325.8 337.09 316.35C347.89 301.3 362.61 292.11 380.63 288.27C388.94 286.44 397.38 285.97 405.75 287.12C433.36 290.83 452.33 305.75 462.73 331.47ZM395.35 383.8C405.55 384 413.31 379.81 418.1 370.7C422.22 362.87 422.15 354.63 418.44 346.66C415.34 339.91 409.87 336.07 402.51 334.78C399 334.17 395.55 334.24 392.18 334.92C382.12 337.01 375.23 342.75 372.4 352.74C370.57 359.22 371.72 365.57 374.42 371.64C376.72 376.91 380.77 380.29 386.1 382.18C389.07 383.26 392.18 383.66 395.35 383.8Z" /></g></svg>