<svg version="1.2" baseProfile="tiny-ps" xmlns="http://www.w3.org/2000/svg" viewBox="0 0 795 795" width="256" height="256"><title>sheikah-logo-iks-svg</title><style>tspan { white-space:pre }.shp0 { fill: #35a0ca } </style><g ><path fill-rule="evenodd" class="shp0" d="M441.01 163.57C431.76 162.02 422.44 161.01 413.06 160.4C402.39 159.72 391.72 159.86 381.05 160.67C373.49 161.21 366 162.22 358.57 163.51C356.14 163.91 353.71 164.38 351.21 164.38C346.49 164.38 345 162.76 345.41 158.04C345.61 155.54 346.35 153.18 347.03 150.81C350.94 137.45 355.47 124.35 361.48 111.72C364.38 105.58 366.94 99.3 369.71 93.09C374.1 83.1 379.16 73.44 384.23 63.86C387.2 58.25 390.17 52.58 393.54 47.25C394.42 45.9 395.3 44.55 396.52 43.47C398.81 41.44 401.11 41.37 403.47 43.33C404.28 44.01 405.02 44.82 405.7 45.63C410.36 51.43 414.27 57.85 417.31 64.6C421.97 74.93 426.02 85.53 429.8 96.13C436.48 114.83 444.18 133.12 452.08 151.29C453.16 153.78 454.04 156.28 454.71 158.91C454.91 159.66 454.98 160.4 455.05 161.14C455.12 162.49 454.44 163.37 453.16 163.84C452.75 163.98 452.35 164.18 451.94 164.25C450.8 164.38 449.65 164.38 448.16 164.52C445.94 164.25 443.44 163.98 441.01 163.57ZM619.11 115.23C619.17 116.18 619.11 117.12 619.11 118.34C618.84 122.19 618.64 126.31 618.23 130.36C617.76 135.62 617.22 140.89 616.61 146.15C615.6 155 614.11 163.71 612.29 172.35C610.53 180.79 609.25 189.3 608.04 197.87C607.02 205.03 605.94 212.18 604.79 219.34C604.52 221.36 603.98 223.32 603.04 225.21C601.15 228.99 598.58 229.87 594.8 227.98C592.71 226.97 591.02 225.55 589.27 224.07C585.35 220.69 581.5 217.18 577.45 213.94C564.15 203.14 549.7 194.16 533.84 187.61C530.06 186.05 526.21 184.64 522.36 183.29C519.26 182.14 516.55 180.45 514.46 177.89C512.23 175.25 512.23 173.43 514.12 170.59C515.88 167.96 518.24 165.94 520.88 164.18C529.18 158.71 537.42 153.18 545.72 147.77C557.74 139.94 569.76 132.11 581.91 124.48C590.68 118.95 600.07 114.63 610.13 111.79C611.28 111.45 612.42 111.11 613.57 110.91C617.22 110.3 618.91 111.52 619.11 115.23ZM188.03 182C188.1 182 188.1 182 188.24 181.94L187.83 169.99C187.29 154.26 187.16 138.46 187.97 122.73C187.97 121.85 188.03 120.97 188.24 120.16C188.84 117.8 190.6 116.79 192.89 117.66C194.92 118.41 196.88 119.35 198.77 120.36C215.38 129.48 231.24 139.61 245.76 151.83C249.4 154.86 253.32 157.5 257.17 160.33C265.81 166.75 274.52 173.16 283.16 179.57C284.31 180.38 285.39 181.26 286.13 182.48C286.87 183.83 286.74 184.91 285.52 185.92C285.05 186.33 284.44 186.66 283.9 187C280.53 188.89 277.08 190.65 273.51 192.2C270 193.68 266.55 195.24 263.11 196.72C247.65 203.41 233.61 212.32 220.64 223.05C213.22 229.2 205.99 235.54 198.9 242.02C197.42 243.44 195.8 244.66 193.91 245.53C193.16 245.87 192.29 246.14 191.48 246.28C189.92 246.55 188.98 245.94 188.44 244.45C188.17 243.71 188.03 242.97 187.97 242.23C187.9 240.88 187.83 239.46 187.83 238.04C187.9 224.2 187.97 210.43 188.03 196.59L188.03 182ZM352.9 703.48C352.29 695.92 351.82 688.42 351.35 680.39C351.28 668.1 352.9 655.48 355.94 643.05C360.13 625.97 364.24 608.89 368.29 591.81C370.46 582.76 372.14 573.65 373.9 564.54C375.72 555.35 377.07 546.04 378.22 536.72C378.83 531.99 379.23 527.27 379.64 522.54C380.58 511.88 381.39 501.21 382.54 490.61C383.08 485.41 381.26 483.92 377.14 483.25C375.25 482.91 373.29 482.71 371.4 482.44C358.24 480.68 345.41 477.38 332.65 473.66C316.24 468.8 300.24 463 284.92 455.5C277.15 451.72 269.66 447.4 262.57 442.47C252.85 435.79 243.19 429.04 234.35 421.27C218.41 407.36 204.64 391.5 192.96 373.81C188.64 367.26 184.59 360.51 180.61 353.69C179.59 352 178.58 350.38 177.5 348.76C176.96 347.88 176.29 347.01 175.54 346.2C173.99 344.51 172.24 343.77 169.81 344.51C164.47 346.13 159 346.47 153.47 346.06C141.85 345.25 131.59 341.27 122.88 333.5C119.03 330.13 116.06 326.08 113.7 321.49C112.01 318.25 111.2 314.8 110.53 311.29C109.18 304.61 108.5 297.86 109.45 291.04C111.14 278.35 117.82 269.1 129.09 263.09C129.36 262.89 129.63 262.82 129.97 262.68C130.58 262.48 131.39 263.02 131.32 263.7C131.25 264.24 131.12 264.78 131.05 265.32C130.11 270.58 129.36 275.98 129.57 281.38C129.7 285.64 130.31 289.76 131.86 293.74C135.24 302.58 141.72 307.58 151.04 309.13C158.26 310.35 165.21 309.06 172.03 306.77C177.91 304.81 183.44 302.11 188.71 298.94C198.43 293.06 207.55 286.31 216.19 278.95C252.85 247.96 294.37 226.23 340.41 212.86C351.96 209.55 363.7 207.12 375.59 205.63C387.4 204.15 399.28 203.68 411.17 204.35C430.27 205.36 448.84 209.14 467 214.88C486.71 221.16 505.55 229.47 523.98 238.72C544.37 248.98 563.41 261.47 581.5 275.38C587.98 280.3 594.26 285.37 600.61 290.43C605.74 294.55 611.01 298.46 616.68 301.84C622.96 305.62 629.71 308.19 636.86 309.54C642.26 310.55 647.6 310.68 652.93 309.27C660.29 307.38 665.62 302.99 668.93 296.17C670.62 292.73 671.57 289.08 672.04 285.3C672.71 279.56 672.58 273.82 671.77 268.15C671.57 266.73 671.36 265.38 671.23 263.97C671.09 263.02 671.7 262.55 672.58 262.82C674.74 263.49 676.76 264.57 678.59 265.92C681.56 268.15 683.92 270.99 685.81 274.16C688.04 277.87 689.59 281.86 690.6 286.11C692.7 295.09 692.83 304.07 690.33 312.98C685.54 330.33 671.16 343.5 653.4 346.8C646.99 348.02 640.71 347.88 634.5 345.86C630.79 344.64 627.68 345.59 624.98 348.15C623.77 349.3 623.02 350.72 622.15 352.07C613.1 366.86 603.11 380.9 591.76 394C569.42 419.85 543.22 440.78 512.37 455.84C494.07 464.82 474.97 471.3 455.05 475.69L427.5 481.56C426.09 481.9 424.74 482.3 423.45 482.78C421.9 483.38 421.02 484.53 420.55 486.09C420.08 487.64 419.88 489.26 420.01 490.88C420.28 494.86 420.48 498.85 420.89 502.83C421.83 511.54 422.85 520.25 423.93 528.89C424.94 536.92 425.95 544.96 427.3 552.92C428.45 559.61 429.93 566.22 431.35 572.91C435.74 593.7 440.8 614.36 445.67 635.02C447.96 644.94 449.85 654.87 450.93 665C452.21 677.15 452.01 689.3 449.99 701.45C448.91 707.93 447.89 714.48 445.94 720.76C443.3 729.27 439.45 737.17 433.99 744.26C430.34 748.98 426.09 753.1 421.02 756.34C415.62 759.85 409.68 762.01 403.2 762.49C398.54 762.82 393.95 761.95 389.56 760.39C384.09 758.43 379.23 755.4 374.91 751.62C365.05 742.91 358.78 732.04 355.26 719.48C353.85 714.21 353.31 708.88 352.9 703.48ZM506.9 319.12C506.9 319.53 506.9 320.27 506.77 321.22C506.5 322.63 505.14 323.72 503.46 323.92C502.04 324.12 501.16 323.44 500.55 322.3C500.08 321.35 499.61 320.41 499.2 319.39C496.17 312.44 492.72 305.69 488.74 299.28C479.96 285.03 468.89 272.88 454.98 263.49C439.18 252.83 421.83 247.09 402.79 246.21C397.8 245.94 392.8 246.07 387.87 246.34C382.27 246.68 376.73 247.69 371.4 249.45C366.61 251 362.02 253.16 357.43 255.32C346.08 260.52 336.16 267.75 327.58 276.73C318.47 286.25 311.45 297.18 306.05 309.2C303.41 315.01 301.25 320.95 299.43 327.09C299.16 328.04 298.89 328.98 298.49 329.86C297.68 331.48 296.19 332.09 294.44 331.21C292.61 330.2 291.87 328.71 291.73 326.75C291.6 323.78 292 320.88 292.61 318.04C295.72 303.8 301.66 290.84 310.98 279.56C322.66 265.32 336.83 254.18 353.98 247.15C355.47 246.48 356.95 245.87 358.3 244.93C358.78 244.59 359.11 244.18 358.91 243.58C358.78 243.1 358.3 243.04 357.9 243.04C357.02 243.04 356.14 243.04 355.33 243.24C353.1 243.64 350.88 244.12 348.72 244.72C336.83 247.96 325.42 252.49 314.22 257.62C274.45 275.98 239.68 301.44 207.82 331.14C206.8 332.09 205.86 333.17 204.98 334.25C203.83 335.8 203.43 337.56 203.9 339.45C204.37 341.34 204.91 343.16 205.79 344.91C207.95 349.17 210.31 353.22 213.15 357.07C219.77 366.11 226.45 375.16 233.27 384.07C241.17 394.4 250.48 403.38 261.08 411.01C264.59 413.58 268.1 416.07 271.68 418.44C278.5 422.96 285.46 427.35 292.34 431.8C299.03 436.19 306.18 439.77 313.61 442.67C325.09 447.2 336.97 450.3 349.12 452.46C350.34 452.67 351.55 453.27 352.83 452.6C352.56 450.84 350.94 450.78 349.8 450.17C343.58 446.79 337.31 443.42 331.37 439.43C327.11 436.53 322.99 433.36 319.48 429.51C312.53 421.81 306.32 413.51 301.52 404.26C298.01 397.51 296.12 390.22 295.11 382.65C294.91 381.24 295.04 379.82 295.65 378.54C296.39 376.92 297.81 376.11 299.57 376.31C300.85 376.44 301.59 377.32 302.2 378.4C303.62 381.1 304.7 383.94 305.71 386.77C308.82 395.48 313.2 403.52 318.94 410.74C334.13 429.91 353.98 441.73 377.48 447.8C384.16 449.56 391.05 450.37 397.93 450.84C405.97 451.38 413.93 450.84 421.77 449.09C427.91 447.74 433.65 445.24 439.32 442.61C453.9 435.86 466.59 426.47 477.73 414.93C482.19 410.33 486.17 405.34 489.48 399.87C493.19 393.86 495.96 387.45 497.31 380.49C497.52 379.55 497.72 378.6 498.12 377.73C499 375.77 501.03 374.89 503.25 375.36C505.21 375.77 506.23 377.19 506.23 379.41C506.23 380.16 506.16 380.9 506.02 381.64C505.68 383.73 505.28 385.9 504.87 387.99C503.25 396.09 500.49 403.79 495.96 410.74C494.21 413.44 492.38 416.14 490.49 418.77C485.09 426.4 478.41 432.82 470.65 438.08C464.97 441.93 459.1 445.24 453.02 448.35C451.34 449.22 449.58 450.03 447.83 450.91C447.35 451.18 446.88 451.45 446.48 451.79C446.34 451.86 446.27 452.19 446.34 452.33C446.41 452.46 446.61 452.73 446.75 452.73C447.15 452.73 447.62 452.67 448.03 452.6C469.84 447.94 490.49 440.38 509.94 429.51C516.76 425.66 523.51 421.88 529.85 417.36C535.86 413.04 541.74 408.44 547.61 403.85C559.43 394.6 569.76 383.94 578.67 371.85C586.57 361.19 593.39 349.84 599.8 338.16C600.27 337.35 600.61 336.61 600.95 335.8C602.03 333.1 601.89 332.56 599.26 331.21C590.28 326.62 581.77 321.35 573.47 315.68C566.78 311.09 560.17 306.43 553.62 301.71C541.67 293.06 529.85 284.15 517.63 275.78C506.23 267.95 494.41 260.86 481.85 254.99C469.16 249.05 456.06 244.52 442.29 241.96C441.68 241.82 441.01 241.55 440.4 241.82C440.13 241.89 439.79 242.16 439.72 242.43C439.66 242.63 439.79 243.1 439.99 243.24C440.67 243.64 441.34 243.91 442.02 244.25C446.95 246.61 452.01 248.91 456.87 251.41C468.76 257.55 478.68 266.06 486.92 276.59C492.05 283.14 496.44 290.16 500.35 297.52C502.51 301.57 504.13 305.76 505.41 310.14C506.23 312.98 506.83 315.82 506.9 319.12ZM510.95 349.17C510.95 349.71 510.95 350.25 511.02 350.79C511.02 352.27 510.88 353.76 510.21 355.18C509.4 356.73 508.25 357.81 506.56 358.15C500.49 359.36 496.91 355.11 496.77 350.65C496.77 348.97 497.11 347.21 497.85 345.66C499.61 341.74 502.65 341.47 505.55 342.28C508.66 343.16 510.68 345.93 510.95 349.17L510.95 349.17ZM299.03 359.97C297.81 360.44 296.6 360.85 295.52 360.71C290.59 360.64 288.43 358.15 288.56 353.49C288.7 349.78 291.33 346.94 294.98 346.53C298.82 346.06 301.86 347.95 303.01 351.46C304.09 354.91 302.33 358.75 299.03 359.97ZM466.73 320.47C470.65 330.2 472.2 340.39 472.13 350.99C472.13 370.84 465.45 387.92 450.93 401.69C441.28 410.81 429.73 416.41 416.63 418.71C398.81 421.88 381.73 419.45 365.86 410.67C348.18 400.88 336.16 386.3 330.42 366.79C327.52 357 327.18 347.01 328.6 336.95C330.22 325.4 334.27 314.8 341.09 305.35C351.89 290.3 366.61 281.11 384.63 277.27C392.94 275.44 401.38 274.97 409.75 276.12C437.36 279.83 456.33 294.75 466.73 320.47ZM399.35 372.8C409.55 373 417.31 368.81 422.1 359.7C426.22 351.87 426.15 343.63 422.44 335.66C419.34 328.91 413.87 325.07 406.51 323.78C403 323.17 399.55 323.24 396.18 323.92C386.12 326.01 379.23 331.75 376.4 341.74C374.57 348.22 375.72 354.57 378.42 360.64C380.72 365.91 384.77 369.29 390.1 371.18C393.07 372.26 396.18 372.66 399.35 372.8Z" /></g></svg>